<svg height="622" width="720" xmlns="http://www.w3.org/2000/svg">
<rect height="622" fill="#555" width="720"></rect>
<text fill="#7f7" font-family="Courier New" font-size="12" xml:space="preserve">
<tspan x="10" y="26"></tspan>

<tspan x="10" y="42">[MODE_BUILD=buildApp] - 2018-08-06T05:02:26.661Z - npm-testing /home/travis/build/projectbko/nod\</tspan>
<tspan x="10" y="58">e-sandbox2</tspan>

<tspan x="10" y="74"></tspan>

<tspan x="10" y="90"></tspan>

<tspan x="10" y="106">buildApp - merged test-report from file /home/travis/build/projectbko/node-sandbox2/tmp/build/te\</tspan>
<tspan x="10" y="122">st-report.json</tspan>

<tspan x="10" y="138">&gt; server listening on http-port 53620</tspan>

<tspan x="10" y="154">&gt; server listening on http-port 33033</tspan>

<tspan x="10" y="170">[node test-case 1 of 1 passed] - testCase_buildApp_default</tspan>

<tspan x="10" y="186"></tspan>

<tspan x="10" y="202">buildApp - merged test-report from file /home/travis/build/projectbko/node-sandbox2/tmp/build/te\</tspan>
<tspan x="10" y="218">st-report.json</tspan>

<tspan x="10" y="234"></tspan>

<tspan x="10" y="250">-------------------------------------------------------</tspan>

<tspan x="10" y="266">| test-report - buildApidoc - node - linux v10.8.0 - 2018-08-06T04:59:32.866Z</tspan>

<tspan x="10" y="282">|  179510 ms            0 failed        1 passed      |</tspan>

<tspan x="10" y="298">-------------------------------------------------------</tspan>

<tspan x="10" y="314">| test-report - buildApp - node - linux v10.8.0 - 2018-08-06T04:59:03.332Z</tspan>

<tspan x="10" y="330">|   26668 ms            0 failed        8 passed      |</tspan>

<tspan x="10" y="346">-------------------------------------------------------</tspan>

<tspan x="10" y="362">| test-report - npmTest - browser - / - Mozilla/5.0 (X11; Linux x86_64) AppleWebKit/537.36 (KHTM\</tspan>
<tspan x="10" y="378">L, like Gecko) Chrome/58.0.3029.110 Electron/1.7.15 Safari/537.36 - 2018-08-06T04:59:15.213Z</tspan>

<tspan x="10" y="394">|      73 ms            0 failed        8 passed      |</tspan>

<tspan x="10" y="410">-------------------------------------------------------</tspan>

<tspan x="10" y="426">| test-report - npmTest - browser - / - Mozilla/5.0 (X11; Linux x86_64) AppleWebKit/537.36 (KHTM\</tspan>
<tspan x="10" y="442">L, like Gecko) Chrome/58.0.3029.110 Electron/1.7.15 Safari/537.36 - 2018-08-06T05:01:47.487Z</tspan>

<tspan x="10" y="458">|      81 ms            0 failed        8 passed      |</tspan>

<tspan x="10" y="474">-------------------------------------------------------</tspan>

<tspan x="10" y="490"></tspan>

<tspan x="10" y="506">created test-report file /home/travis/build/projectbko/node-sandbox2/tmp/build/test-report.html</tspan>

<tspan x="10" y="522"></tspan>

<tspan x="10" y="538"></tspan>

<tspan x="10" y="554">buildApp - 0 failed tests</tspan>

<tspan x="10" y="570"></tspan>

<tspan x="10" y="586"></tspan>

<tspan x="10" y="602">[MODE_BUILD=buildApp] - 2018-08-06T05:02:33.773Z - EXIT_CODE - 0</tspan>

</text>
</svg>
